<svg width="16" height="20" viewBox="0 0 16 20" fill="none" xmlns="http://www.w3.org/2000/svg">
  <path d="M14.4284 7.14342C14.4284 10.7006 7.99986 19.2863 7.99986 19.2863C7.99986 19.2863 1.57129 10.7006 1.57129 7.14342C1.57129 5.43845 2.24858 3.80332 3.45417 2.59773C4.65976 1.39214 6.2949 0.714844 7.99986 0.714844C9.70482 0.714844 11.34 1.39214 12.5455 2.59773C13.7511 3.80332 14.4284 5.43845 14.4284 7.14342Z" stroke="white" stroke-width="1.2" stroke-linecap="round" stroke-linejoin="round" />
  <path d="M7.99979 9.28571C9.18326 9.28571 10.1426 8.32632 10.1426 7.14286C10.1426 5.95939 9.18326 5 7.99979 5C6.81632 5 5.85693 5.95939 5.85693 7.14286C5.85693 8.32632 6.81632 9.28571 7.99979 9.28571Z" stroke="white" stroke-width="1.2" stroke-linecap="round" stroke-linejoin="round" />
</svg>