<svg width="36" height="36" viewBox="0 0 36 36" fill="none" xmlns="http://www.w3.org/2000/svg">
  <path d="M34.7776 7.76106C34.6873 7.65265 34.5742 7.56543 34.4465 7.50557C34.3187 7.4457 34.1793 7.41467 34.0382 7.41467H7.89633L7.06717 2.84422C6.97322 2.32663 6.7005 1.85845 6.29659 1.5214C5.89267 1.18435 5.38322 0.999811 4.85713 1H1.96228C1.70707 1 1.46231 1.10137 1.28184 1.28182C1.10138 1.46227 1 1.70701 1 1.9622C1 2.21739 1.10138 2.46213 1.28184 2.64258C1.46231 2.82303 1.70707 2.9244 1.96228 2.9244H4.84911C4.92507 2.92316 4.99899 2.94892 5.05773 2.99708C5.11647 3.04524 5.15621 3.11268 5.16987 3.1874L9.26116 25.6868C9.39094 26.4046 9.74067 27.0642 10.2619 27.5744C9.63249 28.0778 9.16245 28.7528 8.90869 29.5178C8.65493 30.2827 8.62834 31.1049 8.83212 31.8846C9.0359 32.6644 9.46132 33.3684 10.0569 33.9114C10.6525 34.4545 11.3927 34.8133 12.188 34.9444C12.9833 35.0756 13.7995 34.9734 14.5379 34.6504C15.2764 34.3273 15.9054 33.7972 16.3488 33.1242C16.7922 32.4511 17.031 31.664 17.0363 30.8581C17.0416 30.0521 16.8133 29.2619 16.3788 28.5831H24.7538C24.2552 29.3634 24.0305 30.2875 24.1152 31.2096C24.1999 32.1318 24.5892 32.9995 25.2217 33.6759C25.8542 34.3523 26.6939 34.7989 27.6084 34.9453C28.5228 35.0917 29.46 34.9295 30.2721 34.4844C31.0841 34.0392 31.7249 33.3365 32.0933 32.4869C32.4617 31.6373 32.5368 30.6892 32.3067 29.7922C32.0766 28.8952 31.5544 28.1004 30.8225 27.533C30.0906 26.9656 29.1907 26.658 28.2646 26.6587H12.735C12.3594 26.6587 11.9957 26.527 11.7073 26.2864C11.4189 26.0457 11.2241 25.7116 11.1569 25.3421L10.5795 22.1684H29.5636C30.39 22.1686 31.1902 21.8788 31.8247 21.3495C32.4592 20.8203 32.8879 20.0851 33.0359 19.2722L34.9845 8.54846C35.0096 8.41007 35.0042 8.26784 34.9684 8.1318C34.9327 7.99576 34.8675 7.86921 34.7776 7.76106ZM15.1134 30.8282C15.1134 31.2722 14.9817 31.7063 14.735 32.0755C14.4883 32.4447 14.1376 32.7325 13.7273 32.9024C13.3171 33.0724 12.8656 33.1168 12.4301 33.0302C11.9945 32.9436 11.5944 32.7297 11.2804 32.4157C10.9664 32.1018 10.7526 31.7017 10.6659 31.2662C10.5793 30.8307 10.6238 30.3793 10.7937 29.969C10.9636 29.5588 11.2514 29.2081 11.6207 28.9614C11.9899 28.7147 12.424 28.5831 12.8681 28.5831C13.4636 28.5831 14.0347 28.8196 14.4558 29.2407C14.8769 29.6617 15.1134 30.2328 15.1134 30.8282ZM30.5099 30.8282C30.5099 31.2722 30.3782 31.7063 30.1315 32.0755C29.8848 32.4447 29.5341 32.7325 29.1238 32.9024C28.7135 33.0724 28.2621 33.1168 27.8265 33.0302C27.391 32.9436 26.9909 32.7297 26.6769 32.4157C26.3629 32.1018 26.149 31.7017 26.0624 31.2662C25.9758 30.8307 26.0202 30.3793 26.1902 29.969C26.3601 29.5588 26.6479 29.2081 27.0171 28.9614C27.3864 28.7147 27.8205 28.5831 28.2646 28.5831C28.8601 28.5831 29.4312 28.8196 29.8522 29.2407C30.2733 29.6617 30.5099 30.2328 30.5099 30.8282ZM31.1418 18.9274C31.0745 19.2969 30.8797 19.6311 30.5913 19.8717C30.3029 20.1123 29.9392 20.2441 29.5636 20.244H10.2299L8.24756 9.33907H32.8851L31.1418 18.9274Z" fill="#111111" />
</svg>