<svg width="36" height="36" viewBox="0 0 36 36" fill="none" xmlns="http://www.w3.org/2000/svg">
  <path d="M5.0498 32.4V32.75H5.3998H30.5998H30.9498V32.4V30.006C30.9498 28.2635 29.801 26.5638 27.6404 25.3176C25.4769 24.0696 22.2612 23.248 17.9998 23.248C13.7384 23.248 10.5227 24.0696 8.35918 25.3176C6.19861 26.5638 5.0498 28.2635 5.0498 30.006V32.4ZM17.9998 14.75C21.2478 14.75 23.8578 12.1685 23.8578 9C23.8578 5.83145 21.2478 3.25 17.9998 3.25C14.7518 3.25 12.1418 5.83145 12.1418 9C12.1418 12.1685 14.7518 14.75 17.9998 14.75ZM17.9998 17.65C13.1495 17.65 9.2418 13.7711 9.2418 9C9.2418 4.22892 13.1495 0.35 17.9998 0.35C22.8501 0.35 26.7578 4.22892 26.7578 9C26.7578 13.7711 22.8501 17.65 17.9998 17.65ZM17.9998 20.348C29.8786 20.348 33.8498 26.2599 33.8498 30.006V35.65H2.1498V30.006C2.1498 26.2599 6.12097 20.348 17.9998 20.348Z" fill="#111111" stroke="white" stroke-width="0.7" />
</svg>